<svg version="1.2" xmlns="http://www.w3.org/2000/svg" viewBox="0 0 60 60" width="60" height="60">
  <rect width="100%" height="100%" fill="#286d5e"/>
  <path fill="#fff" d="m51.9 21.5l-0.1-0.1c-2.1-2.2-4.9-3.4-7.8-3.4-3 0-5.7 1.2-7.8 3.4l-5.6 5.8-2.8 2.9-5.6 5.8c-1.6 1.8-3.8 2.7-6.2 2.7-2.3 0-4.5-0.9-6.1-2.7-1.4-1.4-2.2-3.1-2.5-5.1-0.3-1.9 0-3.8 0.9-5.5 0.2-0.5 0.9-1.6 1.9-2.6h0.1c1.6-1.5 3.6-2.3 5.7-2.3q0.9 0 1.7 0.1 0 0.1 0 0.1 0.1 0 0.2 0h0.1c1.5 0.4 3 1.2 4.2 2.5q1.2 1.3 1.9 3.1l0.5 1.2h-11.7c-0.6 0-1.2 0.5-1.2 1.2 0 0.6 0.6 1.1 1.2 1.1h9.9q1.4 0 2.4-0.9c1.1-1.1 1.4-2.7 0.8-4.1q-0.8-1.9-2.2-3.3l-0.6-0.6q-1.6-1.5-3.7-2.2-0.2-0.1-0.4-0.2h-0.1q0 0-0.1 0-0.2-0.1-0.3-0.1-0.2 0-0.3-0.1-0.1 0-0.1 0-0.1 0-0.1 0-1-0.2-2.1-0.2-0.5 0-1 0.1h-0.1q-0.2 0-0.4 0-0.1 0-0.1 0-0.2 0.1-0.4 0.1h-0.1q-0.2 0.1-0.4 0.1-0.1 0-0.1 0-0.2 0.1-0.5 0.2-0.3 0.1-0.5 0.1-1.8 0.7-3.3 1.9l-0.1 0.1q-2.6 2.2-3.5 5.6-0.1 0.1-0.1 0.1 0 0.1 0 0.1 0 0.1 0 0.1 0 0.1 0 0.1h-0.1v0.1q0 0.1 0 0.2 0 0 0 0.1 0 0 0 0.1h-0.1c-0.4 2.3-0.2 4.7 0.7 6.8q0 0.3 0.1 0.4 0 0 0 0.1 0.7 1.5 1.7 2.7l0.5 0.5c2.1 2.2 4.9 3.4 7.8 3.4 3 0 5.7-1.2 7.8-3.4l5.6-5.8 0.6-0.6 0.6 0.6 5.6 5.8c2 2.2 4.9 3.4 7.8 3.4q1.4 0 2.8-0.4c2.3-0.6 4.3-1.9 5.8-3.9 3.5-4.6 3.1-11.1-0.7-15.2zm-0.8 13.3l-0.2 0.3h-0.1c-1.2 1.6-2.9 2.6-3 2.6-1.2 0.6-2.5 0.9-3.8 0.9-2.4 0-4.5-0.9-6.2-2.7l-5.5-6-0.5-0.6 0.6-0.6 5.4-5.6c1.7-1.8 3.9-2.7 6.2-2.7 2.3 0 4.5 0.9 6.2 2.7 1.4 1.5 2.3 3.5 2.5 5.7 0.2 2.1-0.4 4.2-1.6 6z" />
</svg>
