<svg width="309" height="312" viewBox="0 0 309 312" fill="none" xmlns="http://www.w3.org/2000/svg">
<path d="M224.105 0H84.8945C38.0215 0 0 38.3906 0 85.7187V226.281C0 273.609 38.0215 312 84.8945 312H224.105C270.978 312 309 273.609 309 226.281V85.7187C309 38.3906 270.978 0 224.105 0ZM154.5 253.026C101.391 253.026 58.4069 209.557 58.4069 156C58.4069 102.443 101.458 58.974 154.5 58.974C207.542 58.974 250.593 102.443 250.593 156C250.593 209.557 207.542 253.026 154.5 253.026Z" fill="#a9cbef"/>
<circle cx="155" cy="157" r="30" fill="#73ACE6"/>
<rect x="143" y="79" width="24" height="156" rx="12" fill="#73ACE6"/>
<rect x="233" y="144" width="24" height="156" rx="12" transform="rotate(90 233 144)" fill="#73ACE6"/>
</svg>
