<svg width="282" height="282" viewBox="0 0 282 282" xmlns="http://www.w3.org/2000/svg"><defs><linearGradient x1="50%" y1="0%" x2="50%" y2="100%" id="a"><stop stop-color="#6FA4F2" stop-opacity=".1" offset="0%"/><stop stop-color="#0F6BEB" stop-opacity=".1" offset="52.426%"/><stop stop-color="#0B50B0" stop-opacity=".1" offset="100%"/></linearGradient><linearGradient x1="71.839%" y1="117.227%" x2="43.447%" y2="29.727%" id="b"><stop stop-color="#6FA4F2" offset="0%"/><stop stop-color="#0F6BEB" offset="50.51%"/><stop stop-color="#0B50B0" offset="100%"/></linearGradient><linearGradient x1="57.753%" y1="73.972%" x2="29.361%" y2="-13.527%" id="c"><stop stop-color="#6FA4F2" offset="0%"/><stop stop-color="#0F6BEB" offset="50.51%"/><stop stop-color="#0B50B0" offset="100%"/></linearGradient></defs><g fill="none" fill-rule="evenodd"><g><g><path d="M-9-9h300v300H-9z"/><path d="M150.44 289.443c76.77 0 139.003-62.234 139.003-139.003 0-76.77-62.234-139.003-139.003-139.003-76.77 0-139.003 62.234-139.003 139.003 0 42.575 19.14 80.679 49.286 106.177a139.656 139.656 0 0 0 6.24 4.979c23.244 17.484 52.15 27.847 83.477 27.847z" stroke="url(#a)" stroke-width="3" fill="#FFF" transform="translate(-9 -9)"/><g><path fill="url(#b)" d="M55.772 0v128.636H.35l-.35-.2V32.111l2.127-1.227z" transform="translate(76.337 61.381)"/><path fill="url(#c)" d="M73.554 160.997V32.361h55.421l.35.2v96.325l-2.127 1.227z" transform="translate(76.337 61.381)"/></g></g></g></g></svg>