<svg width="300" height="300" viewBox="0 0 300 300" fill="none" xmlns="http://www.w3.org/2000/svg">
  <rect width="300" height="300" fill="#F5FAFA" />
  <path fill-rule="evenodd" clip-rule="evenodd" d="M121.562 175.819V205.834C121.562 207.394 119.877 208.371 118.523 207.597L66.7342 178.004C65.4684 177.28 64.6873 175.934 64.6873 174.477V111.272C64.6873 109.712 66.3721 108.734 67.7263 109.508L93.1245 124.021V158.553L121.562 175.819Z" fill="#3864FF" fill-opacity="0.25" />
  <path fill-rule="evenodd" clip-rule="evenodd" d="M178.438 175.819V205.834C178.438 207.394 180.123 208.371 181.477 207.597L233.266 178.004C234.532 177.28 235.313 175.934 235.313 174.477V111.272C235.313 109.712 233.628 108.734 232.274 109.508L206.875 124.021V158.553L178.438 175.819Z" fill="#3864FF" fill-opacity="0.25" />
  <path d="M93.1252 95.0222C93.1252 93.4625 94.8101 92.4848 96.1643 93.2586L148.992 123.446C149.617 123.803 150.384 123.803 151.008 123.446L203.836 93.2586C205.19 92.4848 206.875 93.4625 206.875 95.0222V158.553L151.054 192.444C150.407 192.838 149.594 192.838 148.946 192.444L93.1252 158.553V95.0222Z" fill="url(#paint0_linear_14_1111)" />
  <defs>
    <linearGradient id="paint0_linear_14_1111" x1="101.25" y1="170.05" x2="206.875" y2="90.8317" gradientUnits="userSpaceOnUse">
      <stop offset="0.16" stop-color="#3864FF" />
      <stop offset="0.56" stop-color="#6083FF" />
      <stop offset="1" stop-color="#3864FF" />
    </linearGradient>
  </defs>
</svg>
