<svg width="246" height="246.99999999999997" xmlns="http://www.w3.org/2000/svg" fill="none">
 <defs>
  <clipPath id="a">
   <path id="svg_1" d="m0,0l245.99,0l0,246.02l-245.99,0l0,-246.02z" fill="#fff"/>
  </clipPath>
 </defs>
 <g>
  <rect width="100%" height="100%" fill="#fae4d1"/>
  <g stroke="null" id="svg_2" clip-path="url(#a)">
   <path stroke="null" id="svg_3" d="m123.01849,212.20433l-88.69694,0.05177l44.37436,-44.35956l44.32259,44.30779z" fill="color(display-p3 .6824 .749 .7647)"/>
   <path stroke="null" id="svg_4" d="m211.74501,123.47781c0,24.50944 -9.91027,46.68182 -25.97379,62.73794l-62.77492,-62.73794l0,-88.73392c49.01887,0 88.74132,39.72984 88.74132,88.73392l0.0074,0z" fill="color(display-p3 .2588 .5059 .6431)"/>
   <path stroke="null" id="svg_5" d="m122.9963,34.74389c-49.01148,0 -88.74132,39.72984 -88.74132,88.73392l88.74132,0l0,-88.73392z" fill="color(display-p3 .4 .5882 .6824)"/>
   <path stroke="null" id="svg_6" d="m34.25498,123.47781l88.7635,88.72652l88.68955,0l0.03698,-0.02958l-88.74871,-88.69694l-88.74132,0z" fill="color(display-p3 .5412 .6667 .7216)"/>
   <path stroke="color(display-p3 .9647 .9098 .8431)" id="svg_7" d="m123.01849,212.20433l-88.69694,0.05177l44.37436,-44.35956l44.32259,44.30779zm88.72652,-88.72652c0,24.50944 -9.91027,46.68182 -25.97379,62.73794l-62.77492,-62.73794l0,-88.73392c49.01887,0 88.74132,39.72984 88.74132,88.73392l0.0074,0zm-88.74871,-88.73392c-49.01148,0 -88.74132,39.72984 -88.74132,88.73392l88.74132,0l0,-88.73392z" stroke-width="6" stroke-linejoin="round" stroke-linecap="round"/>
   <path stroke="color(display-p3 .9647 .9098 .8431)" id="svg_8" d="m34.25498,123.47781l88.7635,88.72652l88.68955,0l0.03698,-0.02958l-88.74871,-88.69694l-88.74132,0z" stroke-width="6" stroke-linejoin="round" stroke-linecap="round"/>
  </g>
 </g>
</svg>
