<svg width="24" height="24" viewBox="0 0 24 24" fill="none" xmlns="http://www.w3.org/2000/svg">
<g clip-path="url(#clip0_6012_11)">
<path d="M12.5438 0.140625C12.2063 -0.046875 11.7937 -0.046875 11.4562 0.140625L0.825 6.00469C0.314063 6.28594 0 6.82031 0 7.40156C0 8.2875 0.7125 9 1.59844 9H22.4016C23.2828 9 24 8.2875 24 7.40156C24 6.82031 23.6859 6.28594 23.175 6.00469L12.5438 0.140625ZM10.7016 6.75H4.13437L12 2.40938L19.8656 6.75H13.2984C13.425 6.52969 13.5 6.27188 13.5 6C13.5 5.17031 12.8297 4.5 12 4.5C11.1703 4.5 10.5 5.17031 10.5 6C10.5 6.27188 10.575 6.52969 10.7016 6.75ZM3 10.5V18C2.37656 18 1.875 18.5016 1.875 19.125C1.875 19.7484 2.37656 20.25 3 20.25H21.375C21.9984 20.25 22.5 19.7484 22.5 19.125C22.5 18.5016 21.9984 18 21.375 18H21V10.5H18.75V18H15.75V10.5H13.5V18H10.5V10.5H8.25V18H5.25V10.5H3ZM1.5 21.75C0.876562 21.75 0.375 22.2516 0.375 22.875C0.375 23.4984 0.876562 24 1.5 24H22.875C23.4984 24 24 23.4984 24 22.875C24 22.2516 23.4984 21.75 22.875 21.75H1.5Z" fill="currentColor"/>
</g>
</svg>
