<svg viewBox="0 0 24 24" fill="none" xmlns="http://www.w3.org/2000/svg">
  <path
    d="M19.6526 5.35131C19.6465 5.34 19.6363 5.33114 19.624 5.32631C18.1976 4.70162 16.6924 4.25616 15.1459 4.00109C15.1319 3.9986 15.1174 4.0004 15.1044 4.00623C15.0915 4.01207 15.0809 4.02164 15.074 4.03359C14.869 4.3887 14.683 4.75345 14.5165 5.12645C12.8495 4.88491 11.1539 4.88491 9.48694 5.12645C9.31938 4.7525 9.13033 4.38766 8.92066 4.03359C8.91347 4.0219 8.90275 4.01255 8.88991 4.00675C8.87707 4.00095 8.8627 3.99898 8.84867 4.00109C7.30207 4.25563 5.79673 4.70112 4.37053 5.32635C4.35833 5.33129 4.34802 5.33972 4.34105 5.35049C1.48894 9.41614 0.707633 13.3818 1.09091 17.2984C1.09199 17.308 1.09508 17.3173 1.1 17.3257C1.10492 17.3342 1.11156 17.3416 1.11954 17.3475C2.7803 18.5213 4.63788 19.4172 6.61301 19.9971C6.62692 20.0011 6.64177 20.0009 6.65557 19.9966C6.66937 19.9923 6.68145 19.9841 6.6902 19.973C7.11441 19.422 7.4903 18.8386 7.81403 18.2286C7.81848 18.2203 7.82102 18.2111 7.82148 18.2017C7.82195 18.1923 7.82033 18.183 7.81672 18.1742C7.81312 18.1655 7.80762 18.1576 7.80059 18.151C7.79355 18.1445 7.78514 18.1394 7.77591 18.1362C7.18316 17.9197 6.60931 17.6587 6.05975 17.3557C6.04977 17.3501 6.04138 17.3423 6.03534 17.3328C6.02929 17.3234 6.02577 17.3127 6.02509 17.3017C6.0244 17.2906 6.02658 17.2796 6.03142 17.2696C6.03625 17.2595 6.04361 17.2508 6.05283 17.2441C6.16814 17.1616 6.28353 17.0758 6.39364 16.9892C6.40343 16.9815 6.41526 16.9766 6.42782 16.975C6.44038 16.9733 6.45317 16.9751 6.46473 16.9801C10.0651 18.5485 13.9631 18.5485 17.5209 16.9801C17.5325 16.9748 17.5454 16.9728 17.5581 16.9743C17.5709 16.9757 17.5829 16.9806 17.5929 16.9884C17.703 17.075 17.8184 17.1616 17.9346 17.2441C17.9438 17.2507 17.9512 17.2594 17.9562 17.2694C17.9611 17.2794 17.9633 17.2904 17.9627 17.3015C17.9621 17.3125 17.9587 17.3232 17.9527 17.3327C17.9468 17.3422 17.9384 17.3501 17.9285 17.3557C17.3802 17.6613 16.8058 17.9221 16.2115 18.1354C16.2023 18.1387 16.1939 18.1439 16.1869 18.1506C16.1799 18.1572 16.1745 18.1652 16.171 18.174C16.1674 18.1828 16.1659 18.1922 16.1664 18.2016C16.167 18.2111 16.1696 18.2203 16.1741 18.2286C16.5033 18.8352 16.8786 19.4179 17.2971 19.972C17.3056 19.9834 17.3176 19.9919 17.3314 19.9964C17.3453 20.0009 17.3603 20.0011 17.3743 19.997C19.3529 19.4191 21.2138 18.5231 22.8766 17.3475C22.8847 17.3419 22.8914 17.3347 22.8964 17.3263C22.9013 17.318 22.9043 17.3088 22.9052 17.2992C23.3641 12.7713 22.137 8.83807 19.6526 5.35131ZM8.35172 14.9136C7.26773 14.9136 6.37456 13.9641 6.37456 12.7979C6.37456 11.6318 7.25041 10.6822 8.35172 10.6822C9.46164 10.6822 10.3462 11.64 10.3289 12.7979C10.3289 13.9641 9.45296 14.9136 8.35172 14.9136ZM15.6619 14.9136C14.5779 14.9136 13.6848 13.9641 13.6848 12.7979C13.6848 11.6318 14.5606 10.6822 15.6619 10.6822C16.7719 10.6822 17.6564 11.64 17.639 12.7979C17.639 13.9641 16.7719 14.9136 15.6619 14.9136Z"
    fill="currentColor" />
</svg>