<svg viewBox="0 0 24 24" fill="none" xmlns="http://www.w3.org/2000/svg">
  <path
    d="M8.35847 18.7144C8.35847 18.8053 8.25645 18.8781 8.12782 18.8781C7.98145 18.8918 7.87944 18.819 7.87944 18.7144C7.87944 18.6234 7.98145 18.5506 8.11008 18.5506C8.24314 18.537 8.35847 18.6097 8.35847 18.7144ZM6.97903 18.5097C6.94798 18.6006 7.03669 18.7053 7.16976 18.7326C7.28508 18.7781 7.41815 18.7326 7.44476 18.6416C7.47137 18.5506 7.3871 18.446 7.25403 18.405C7.13871 18.3732 7.01008 18.4187 6.97903 18.5097ZM8.93952 18.4323C8.81089 18.4642 8.72218 18.5506 8.73548 18.6552C8.74879 18.7462 8.86411 18.8054 8.99718 18.7735C9.12581 18.7417 9.21452 18.6552 9.20121 18.5642C9.1879 18.4778 9.06814 18.4187 8.93952 18.4323ZM11.8581 1C5.70605 1 1 5.79025 1 12.0999C1 17.1449 4.09597 21.4621 8.51815 22.9815C9.08589 23.0861 9.28548 22.7267 9.28548 22.431C9.28548 22.149 9.27218 20.5932 9.27218 19.6378C9.27218 19.6378 6.16734 20.3202 5.51532 18.2822C5.51532 18.2822 5.00968 16.9584 4.28226 16.6172C4.28226 16.6172 3.26653 15.903 4.35323 15.9166C4.35323 15.9166 5.45766 16.0076 6.06532 17.0903C7.03669 18.8463 8.66452 18.3413 9.29879 18.0411C9.40081 17.3132 9.68911 16.8083 10.0085 16.508C7.52903 16.226 5.02742 15.8575 5.02742 11.4812C5.02742 10.2302 5.36452 9.60243 6.07419 8.80178C5.95887 8.50609 5.58185 7.28692 6.18952 5.71291C7.11653 5.41722 9.25 6.94118 9.25 6.94118C10.1371 6.68643 11.0907 6.55451 12.0355 6.55451C12.9802 6.55451 13.9339 6.68643 14.821 6.94118C14.821 6.94118 16.9544 5.41267 17.8815 5.71291C18.4891 7.29147 18.1121 8.50609 17.9968 8.80178C18.7065 9.60698 19.1411 10.2348 19.1411 11.4812C19.1411 15.8712 16.5286 16.2214 14.0492 16.508C14.4573 16.8674 14.8032 17.5498 14.8032 18.6188C14.8032 20.1519 14.7899 22.0489 14.7899 22.4219C14.7899 22.7176 14.994 23.077 15.5573 22.9724C19.9927 21.4621 23 17.1449 23 12.0999C23 5.79025 18.0101 1 11.8581 1ZM5.31129 16.69C5.25363 16.7355 5.26694 16.8401 5.34234 16.9266C5.41331 16.9993 5.51532 17.0312 5.57298 16.972C5.63064 16.9266 5.61734 16.8219 5.54194 16.7355C5.47097 16.6627 5.36895 16.6309 5.31129 16.69ZM4.83226 16.3215C4.80121 16.3807 4.84556 16.4534 4.93427 16.4989C5.00524 16.5444 5.09395 16.5308 5.125 16.4671C5.15605 16.408 5.11169 16.3352 5.02298 16.2897C4.93427 16.2624 4.86331 16.276 4.83226 16.3215ZM6.26935 17.941C6.19839 18.0002 6.225 18.1366 6.32702 18.2231C6.42903 18.3277 6.55766 18.3413 6.61532 18.2686C6.67298 18.2094 6.64637 18.0729 6.55766 17.9865C6.46008 17.8819 6.32702 17.8682 6.26935 17.941ZM5.76371 17.2723C5.69274 17.3178 5.69274 17.4361 5.76371 17.5407C5.83468 17.6453 5.95444 17.6908 6.0121 17.6453C6.08306 17.5862 6.08306 17.4679 6.0121 17.3633C5.95 17.2586 5.83468 17.2132 5.76371 17.2723Z"
    fill="currentColor" />
</svg>