<svg viewBox="0 0 20 20" fill="none" xmlns="http://www.w3.org/2000/svg">
  <g clip-path="url(#clip0_4001_8898)">
    <path
      d="M10 2.75C13.8555 2.75 17 5.89453 17 9.75C17 13.6328 13.8555 16.75 10 16.75C6.11719 16.75 3 13.6328 3 9.75C3 5.89453 6.11719 2.75 10 2.75ZM10 15.4375C13.1172 15.4375 15.6875 12.8945 15.6875 9.75C15.6875 6.63281 13.1172 4.0625 10 4.0625C6.85547 4.0625 4.3125 6.63281 4.3125 9.75C4.3125 12.8945 6.85547 15.4375 10 15.4375ZM11.0938 11.9375C11.4492 11.9375 11.75 12.2383 11.75 12.5938C11.75 12.9766 11.4492 13.25 11.0938 13.25H8.90625C8.52344 13.25 8.25 12.9766 8.25 12.5938C8.25 12.2383 8.52344 11.9375 8.90625 11.9375H9.34375V10.1875H9.125C8.74219 10.1875 8.46875 9.91406 8.46875 9.53125C8.46875 9.17578 8.74219 8.875 9.125 8.875H10C10.3555 8.875 10.6562 9.17578 10.6562 9.53125V11.9375H11.0938ZM10 8C9.50781 8 9.125 7.61719 9.125 7.125C9.125 6.66016 9.50781 6.25 10 6.25C10.4648 6.25 10.875 6.66016 10.875 7.125C10.875 7.61719 10.4648 8 10 8Z"
      fill="currentColor" />
  </g>
  <defs>
    <clipPath id="clip0_4001_8898">
      <rect width="20" height="20" fill="white" />
    </clipPath>
  </defs>
</svg>