<svg viewBox="0 0 24 24" fill="none" xmlns="http://www.w3.org/2000/svg">
<path d="M9.4421 9.432C9.09016 10.0055 8.94124 10.6807 9.01927 11.349C9.09729 12.0173 9.39773 12.64 9.87231 13.117C10.3469 13.594 10.9681 13.8976 11.636 13.9791C12.3039 14.0605 12.9798 13.915 13.5551 13.566M15.0001 11C15.0001 10.2044 14.684 9.44129 14.1214 8.87868C13.5588 8.31607 12.7957 8 12.0001 8" stroke="currentColor" stroke-width="2" stroke-linecap="round" stroke-linejoin="round"/>
<path d="M17.1522 17.162L13.4142 20.9C13.0392 21.2746 12.5308 21.4851 12.0007 21.4851C11.4707 21.4851 10.9623 21.2746 10.5872 20.9L6.34325 16.657C4.9291 15.2429 4.09588 13.3504 4.00777 11.3525C3.91967 9.35457 4.58307 7.3961 5.86725 5.86301M8.04725 4.04301C9.57077 3.1781 11.336 2.83701 13.0721 3.07207C14.8081 3.30713 16.4191 4.10535 17.6578 5.34425C18.8964 6.58315 19.6944 8.19426 19.9291 9.93037C20.1638 11.6665 19.8224 13.4316 18.9572 14.955" stroke="currentColor" stroke-width="2" stroke-linecap="round" stroke-linejoin="round"/>
<path d="M3 3L21 21" stroke="currentColor" stroke-width="2" stroke-linecap="round" stroke-linejoin="round"/>
</svg>
