<svg width="24" height="24" viewBox="0 0 24 24" fill="none" xmlns="http://www.w3.org/2000/svg">
<path d="M17.3976 20C17.1088 20 16.8387 19.8678 16.6699 19.6428L6.59491 6.31486L1.62494 12.7913C1.33236 13.1735 0.769724 13.2557 0.368374 12.977C-0.0329748 12.6984 -0.119247 12.1626 0.173326 11.7803L5.87474 4.35015C6.04353 4.12867 6.31734 3.9965 6.60617 4.00007C6.89499 4.00364 7.16505 4.13224 7.33385 4.35729L17.4051 17.6816L22.3751 11.2052C22.6676 10.823 23.2303 10.7408 23.6316 11.0195C24.033 11.2981 24.1192 11.8339 23.8267 12.2162L18.1253 19.6464C17.9565 19.8678 17.6827 20 17.3938 19.9964L17.3976 20Z" fill="currentColor"/>
</svg>
