<svg width="24" height="24" viewBox="0 0 24 24" fill="none" xmlns="http://www.w3.org/2000/svg">
<g clip-path="url(#clip0_6011_8)">
<path d="M12 2.31563L3.42187 5.95313C3.14531 6.07031 2.99531 6.31875 3 6.55313C3.02344 10.8375 4.8 18.2391 11.7375 21.5578C11.9062 21.6375 12.1031 21.6375 12.2672 21.5578C19.2047 18.2344 20.9813 10.8375 21 6.54844C21 6.31406 20.8547 6.07031 20.5781 5.94844L12 2.31563ZM12.6281 0.135938L21.4547 3.88125C22.4859 4.31719 23.2547 5.33438 23.25 6.5625C23.2266 11.2125 21.3141 19.7203 13.2375 23.5875C12.4547 23.9625 11.5453 23.9625 10.7625 23.5875C2.68594 19.7203 0.773436 11.2125 0.749998 6.5625C0.745311 5.33438 1.51406 4.31719 2.54531 3.88125L11.3766 0.135938C11.5687 0.046875 11.7844 0 12 0C12.2156 0 12.4312 0.046875 12.6281 0.135938Z" fill="currentColor"/>
</g>
</svg>
